<svg width="400" height="408" viewBox="0 0 400 408" fill="none" xmlns="http://www.w3.org/2000/svg">
<path d="M164.864 370V146.32H133.184V112.24L165.344 105.52C166.304 79.28 170.784 58.64 178.784 43.6C186.784 28.24 197.504 17.2 210.944 10.48C224.384 3.75998 239.904 0.399981 257.504 0.399981C261.664 0.399981 266.464 0.559978 271.904 0.879974C277.344 1.19999 281.984 1.51999 285.824 1.83999C289.664 1.83999 291.584 1.83999 291.584 1.83999L287.744 46.96C287.744 46.96 285.504 46.96 281.024 46.96C276.864 46.64 271.904 46.32 266.144 46C260.704 45.68 255.744 45.52 251.264 45.52C243.584 45.52 237.504 46.96 233.024 49.84C228.544 52.4 225.344 57.84 223.424 66.16C221.504 74.48 220.384 87.28 220.064 104.56H282.464V147.76H220.544V370H164.864Z" fill="black"/>
</svg>
