<svg width="400" height="400" viewBox="0 0 400 400" fill="none" xmlns="http://www.w3.org/2000/svg">
<circle cx="200" cy="200" r="200" fill="black"/>
<ellipse cx="198.946" cy="177.045" rx="143.946" ry="63.0455" fill="white"/>
<ellipse cx="200.054" cy="199.167" rx="143.946" ry="63.0455" fill="black"/>
<ellipse cx="199.557" cy="229.08" rx="129.055" ry="56.4586" fill="white"/>
<ellipse cx="200.55" cy="248.89" rx="129.055" ry="56.4586" fill="black"/>
<ellipse cx="199.099" cy="271.35" rx="104.237" ry="45.6374" fill="white"/>
<ellipse cx="199.901" cy="287.363" rx="104.237" ry="45.6374" fill="black"/>
<path d="M68 177C68 188.598 60.8366 198 52 198C43.1634 198 36 188.598 36 177C36 165.402 43.1634 156 52 156C60.8366 156 68 165.402 68 177Z" fill="black"/>
<path d="M84 229C84 240.598 76.8366 250 68 250C59.1634 250 52 240.598 52 229C52 217.402 59.1634 208 68 208C76.8366 208 84 217.402 84 229Z" fill="black"/>
<path d="M346 229C346 240.598 338.837 250 330 250C321.163 250 314 240.598 314 229C314 217.402 321.163 208 330 208C338.837 208 346 217.402 346 229Z" fill="black"/>
<path d="M320 279C320 290.598 312.837 300 304 300C295.163 300 288 290.598 288 279C288 267.402 295.163 258 304 258C312.837 258 320 267.402 320 279Z" fill="black"/>
<path d="M111 279C111 290.598 103.837 300 95 300C86.1634 300 79 290.598 79 279C79 267.402 86.1634 258 95 258C103.837 258 111 267.402 111 279Z" fill="black"/>
<path d="M362 177C362 188.598 354.837 198 346 198C337.163 198 330 188.598 330 177C330 165.402 337.163 156 346 156C354.837 156 362 165.402 362 177Z" fill="black"/>
</svg>
